<svg width="44" height="44" viewBox="0 0 44 44" fill="none" xmlns="http://www.w3.org/2000/svg">
<rect width="44" height="44" rx="22" transform="matrix(-1 0 0 1 44 0)" fill="#CFCED6"/>
<path d="M26 23C25.4477 23 25 22.5523 25 22C25 21.4477 25.4477 21 26 21L26 23ZM26.8071 21.2929C27.1976 21.6834 27.1976 22.3166 26.8071 22.7071L20.4431 29.0711C20.0526 29.4616 19.4195 29.4616 19.0289 29.0711C18.6384 28.6805 18.6384 28.0474 19.0289 27.6569L24.6858 22L19.0289 16.3431C18.6384 15.9526 18.6384 15.3195 19.0289 14.9289C19.4195 14.5384 20.0526 14.5384 20.4431 14.9289L26.8071 21.2929ZM26 21L26.1 21L26.1 23L26 23L26 21Z" fill="#1A1A1F"/>
</svg>
