<svg width="44" height="44" viewBox="0 0 44 44" fill="none" xmlns="http://www.w3.org/2000/svg">
<rect width="44" height="44" rx="22" transform="matrix(1 8.74228e-08 8.74228e-08 -1 0 44)" fill="#512BE7"/>
<path d="M18 21C18.5523 21 19 21.4477 19 22C19 22.5523 18.5523 23 18 23L18 21ZM17.1929 22.7071C16.8024 22.3166 16.8024 21.6834 17.1929 21.2929L23.5569 14.9289C23.9474 14.5384 24.5805 14.5384 24.9711 14.9289C25.3616 15.3195 25.3616 15.9526 24.9711 16.3431L19.3142 22L24.9711 27.6569C25.3616 28.0474 25.3616 28.6805 24.9711 29.0711C24.5805 29.4616 23.9474 29.4616 23.5569 29.0711L17.1929 22.7071ZM18 23L17.9 23L17.9 21L18 21L18 23Z" fill="white"/>
</svg>
